<svg xmlns="http://www.w3.org/2000/svg" viewBox="0 0 190.89 242.88">
  <path d="M178.13 119.6c-3.41-8.65-8.05-16.79-13.48-24.55.49-4.13 0-7.8-4.98-13.81-1.09-2.62-2.08-4.87-2.93-7.05-.47-4.43.2-10.49 1.09-13.05-4-6.48-11.86-11.98-21.98-15.71 1.68-13.22 5.2-26.24 9.51-36.46-5.36 2.33-12.15 6.69-18.12 12.26-.56-7.67-1.31-15.27-1.87-20.87-1.18 1.08-21.96 23.28-21.96 23.28L88.55 0l-9.48 26.35S59.39 12.64 53.17 8.68c.56 7.91 1.55 15.32 2.2 20.78-3.67-2.21-14.11-6.53-20.33-6.82 5.67 7.94 14.08 21.02 17.04 33.11-17.17 10.43-30.44 22.5-45.55 49.53 2.09.14 6.36.41 10.17.81-7.33 9.43-18.02 33.07-16.57 51.66 2.65-.88 11.62-3.68 16.57-5.34-3.94 16.31-1.35 49.62 11.03 62.37 6.82-3.15 19.42-15.36 26.62-25.66 1.13 20.33-5.44 39.59-6.67 41.79 40.47 26.26 81.47-.17 81.47-.17s1.98 9.13 2.83 12.14c11.19-2.79 34.74-17.62 43.31-51.22 1.98 2.26 5.91 6.61 7.62 9.1 14.85-37.97 6.41-63.41-4.79-81.15Z" style="fill:#fff"/>
  <path d="M44.79 29.09c9.8 4.49 16.09 10.16 17.23 11.02-.52-2.54-2.45-14.71-3.56-22.29 5.71 3.97 18.97 13.17 23.32 16.16 1.78-5.48 7.93-23.36 7.93-23.36s11.12 18.01 13.02 20.94c2.32-2.43 15.62-17.22 19.06-20.97.58 8.51 1.37 20.69 1.56 22.52.68-.91 5.77-8.04 14.3-14.62-3.7 7.28-5.46 17.34-6.25 25.42a97.69 97.69 0 0 0-26.38-3.61c-17.53 0-33.99 4.62-48.22 12.7-2.59-7.79-6.64-17.5-12.01-23.91Zm134.18 153.59-7.72-8.56c-2.21 23.12-13.52 42.74-34.31 56.42l-3.17-12.47c-17.65 12.76-47.94 21.02-73.95 6.32 3.22-16.49 6.09-33.18-.06-53.18-14.4 22.31-27.16 31.05-27.16 31.05-9.72-16.34-8.85-49.13-5.95-58.79l-16.2 5.02c0-11.01 7.94-34.4 19.42-47.52l-10.12-1.62a95.195 95.195 0 0 1 29.69-35.27h.01c-3.77 5.96-3.82 20.65 7.23 26.24-4.7-8.23-5.26-18.39-.37-23.66 4.91-5.3 13.15-3.48 18.41.64-1.56-4.59-6.15-10.36-13.03-10.76 12.99-6.68 27.72-10.45 43.33-10.45 2.92 0 5.8.13 8.65.39 4.54 1.83 11.2 8.22 14.31 12.19 0 0 .22-4.69-2.39-10.35 16.9 4.1 24.95 10.98 28.33 14.31.69 7.29 2.88 11.68 5.77 18.62-5.47-6.14-19.23-16.02-25.79-18.39 0 0-.54 6.33-2.8 9.38-13.07-9.44-19.49-11.8-19.49-11.8-14.36 2.05-23.58 7.59-28.59 11.94l4.37 3.72c-8.65 2.66-14.27 10.1-14.27 10.1.06.13 7.73 1.22 7.73 1.22s-.78 9.01 10.5 14.66c9.65 4.83 23.55-1.16 36.63 4.08-8.61-9.93-14.53-14.37-14.53-14.37s-3.42-.71-5.83-.7c-3 .02-7.47.62-12.39-1.3-2.34-.91-5.08-2.53-7.22-3.88 0 0 6.04-6.2 14.85-7.57 0 0 7.95 2.24 14.26 6.9 4.19-4.08 8.56-3.95 8.56-3.95s-4.33 4.05-3.02 8.95c6.3 5.62 13.13 13.65 13.13 13.65 6.96-3.82 22.08-2.94 25.19.66-3.94-5.1-9.61-9.36-14-13.01-.53-1.91-5.32-8.59-6.13-9.2 0 0 4.56 1.41 8.62 5.05 1.18-1.66 3.36-3.36 6.34-4.11 3.07 2.57 3.6 6.51 3.52 7.17-1.39 1.64-2.73 2.32-2.73 2.32l7.36 7.97.74-5.72c16.97 24.23 26.23 52.31 14.32 87.62Zm-32.01-52.23-.02-12.53s-5.59-1.8-11.58-6.44c-12 1.82-26.55 13.89-26.55 13.89s4.92 9.32 10.28 19.37c9.45 1.3 23.36-10.61 27.85-14.3Zm12.08 22.73s-.96-5.18-5.07-10.03l-9.36.23s-12.64 10.86-20.34 11.11c0 0 4.25 7.9 6.38 12.02 4.25-.92 11.71-4.28 14.71-7.76 0 0 1.99 6.41 1.61 13.96 4.22-2.46 10.04-9.08 12.08-19.54Zm3.85-41.19c-4.72 3.98-8.73 6.18-8.73 6.18l.04 12.59c3.39 3.77 6.72 6.89 9.22 12.58 4.73-8.51 3.83-21.05-.53-31.35Z" style="fill:#3c175c"/>
</svg>