<svg width="26" height="16" viewBox="0 0 26 16" fill="none" xmlns="http://www.w3.org/2000/svg">
<path fill-rule="evenodd" clip-rule="evenodd" d="M24.441 0.461914C24.9883 0.461914 25.4592 0.839105 25.3032 1.44293V13.5078C25.3032 14.7921 24.1292 15.8465 22.7198 15.8465H2.68154C1.428 15.8465 0.333496 14.8657 0.333496 13.7346V3.32791C0.333496 2.80065 0.804342 2.34704 1.35161 2.34704H4.01148V1.44278C4.01148 0.915521 4.48232 0.461914 5.02959 0.461914H24.441ZM23.5011 2.34678H5.97054V13.8844L22.8749 13.8873C23.1898 13.8873 23.5017 13.6605 23.5017 13.4337L23.5011 2.34678ZM4.01447 4.15827H2.36959L2.37265 13.5839C2.37265 13.6605 2.44909 13.8107 2.6845 13.8107H3.62311C3.85852 13.8107 4.01445 13.6605 4.01445 13.5839L4.01447 4.15827ZM19.9005 9.28387C20.4478 9.28387 20.9187 9.73749 20.9187 10.2647C20.9187 10.792 20.4478 11.2456 19.9005 11.2456H9.56993C9.02264 11.2456 8.55181 10.7949 8.55181 10.2677C8.55181 9.74042 9.02266 9.28681 9.56993 9.28681L19.9005 9.28387ZM19.9005 4.83647C20.4478 4.83647 20.9187 5.29008 20.9187 5.81734C20.9187 6.3446 20.4478 6.79821 19.9005 6.79821H9.56993C9.02264 6.79821 8.55181 6.3446 8.55181 5.81734C8.55181 5.29008 9.02266 4.83647 9.56993 4.83647H19.9005Z" fill="#37003C"/>
</svg>
