<svg xmlns="http://www.w3.org/2000/svg" width="24" height="24" fill="none"><path fill="#fff" fill-rule="evenodd" d="M19.177 17.654c3.477-4.243 3.236-10.532-.723-14.49-4.218-4.219-11.078-4.219-15.29 0-4.219 4.218-4.219 11.07 0 15.288a10.776 10.776 0 0 0 7.645 3.16c2.433 0 4.865-.81 6.847-2.438l4.51 4.51c.21.208.488.316.76.316a1.078 1.078 0 0 0 .76-1.837l-4.51-4.509Zm-14.5-.722c-3.375-3.375-3.375-8.866 0-12.248a8.634 8.634 0 0 1 6.12-2.534c2.216 0 4.433.843 6.125 2.534 3.376 3.375 3.376 8.867 0 12.242l-.007.007c-3.363 3.375-8.861 3.375-12.237 0Z" clip-rule="evenodd"/></svg>