<svg width="150" height="50" viewBox="0 0 150 50" fill="none" xmlns="http://www.w3.org/2000/svg">
  <path d="M40.5 5H10.5C7.73858 5 5.5 7.23858 5.5 10V40C5.5 42.7614 7.73858 45 10.5 45H40.5C43.2614 45 45.5 42.7614 45.5 40V10C45.5 7.23858 43.2614 5 40.5 5Z" fill="#FF2882"/>
  <path d="M25.5 9L30.7272 18.5H20.2728L25.5 9Z" fill="white"/>
  <path d="M25.5 41L20.2728 31.5H30.7272L25.5 41Z" fill="white"/>
  <path d="M9 25L18.5 19.7728V30.2272L9 25Z" fill="white"/>
  <path d="M41 25L31.5 30.2272V19.7728L41 25Z" fill="white"/>
  <path d="M25.5 25C27.7091 25 29.5 23.2091 29.5 21C29.5 18.7909 27.7091 17 25.5 17C23.2909 17 21.5 18.7909 21.5 21C21.5 23.2091 23.2909 25 25.5 25Z" fill="white"/>
  <path d="M60.5 20H55.5V30H57.5V26H60.5C62.5 26 64 24.5 64 23C64 21.5 62.5 20 60.5 20ZM60.5 24H57.5V22H60.5C61.5 22 62 22.5 62 23C62 23.5 61.5 24 60.5 24Z" fill="white"/>
  <path d="M71.5 20H66.5V30H71.5C74 30 76 28 76 25C76 22 74 20 71.5 20ZM71.5 28H68.5V22H71.5C72.5 22 74 23 74 25C74 27 72.5 28 71.5 28Z" fill="white"/>
  <path d="M85 20H77V30H79V26H84V24H79V22H85V20Z" fill="white"/>
  <path d="M94 20H86V30H94V28H88V26H93V24H88V22H94V20Z" fill="white"/>
  <path d="M97 30H99V20H97V30Z" fill="white"/>
  <path d="M107 20H103.7L99 28V30H107V28H102.3L107 20Z" fill="white"/>
  <path d="M121 20H119V28H112V20H110V30H121V20Z" fill="white"/>
  <path d="M129 20H123V30H125V26H129C131 26 132.5 24.5 132.5 23C132.5 21.5 131 20 129 20ZM129 24H125V22H129C130 22 130.5 22.5 130.5 23C130.5 23.5 130 24 129 24Z" fill="white"/>
  <path d="M141 20H133V30H141V28H135V26H140V24H135V22H141V20Z" fill="white"/>
</svg> 